<?xml version="1.0" encoding="iso-8859-1"?>
<!-- Uploaded to: SVG Repo, www.svgrepo.com, Generator: SVG Repo Mixer Tools -->
<!DOCTYPE svg PUBLIC "-//W3C//DTD SVG 1.1//EN" "http://www.w3.org/Graphics/SVG/1.1/DTD/svg11.dtd">
<svg fill="#787D85" version="1.1" id="Capa_1" xmlns="http://www.w3.org/2000/svg" xmlns:xlink="http://www.w3.org/1999/xlink" 
	 width="800px" height="800px" viewBox="0 0 34.879 34.879"
	 xml:space="preserve">
<g>
	<g>
		<path d="M28.189,10.75c0-5.443-4.068-9.942-9.324-10.646c-0.035-0.006-0.07-0.011-0.107-0.016
			c-0.094-0.012-0.186-0.028-0.279-0.037C18.121,0.013,17.764,0,17.439,0c-5.928,0-10.75,4.821-10.75,10.75
			c0,0.452,0.02,0.885,0.058,1.303c0.011,0.115,0.031,0.215,0.044,0.327c0.034,0.287,0.066,0.575,0.119,0.85
			c0.072,0.375,0.16,0.729,0.261,1.063c0.022,0.073,0.053,0.146,0.076,0.219c0.09,0.276,0.185,0.544,0.29,0.797
			c0.011,0.025,0.018,0.053,0.028,0.078c0.007,0.017,0.02,0.029,0.027,0.045c0.467,1.078,1.055,1.975,1.638,2.85
			c1.197,1.795,2.319,3.518,2.444,6.895c-0.134,0.172-0.226,0.375-0.226,0.607v5c0,1.32,1.608,2.037,3.526,2.346
			c-0.017,0.072-0.036,0.145-0.036,0.219c0,0.846,1.12,1.531,2.5,1.531s2.5-0.686,2.5-1.531c0-0.074-0.021-0.146-0.036-0.219
			c1.918-0.309,3.525-1.023,3.525-2.346v-5c0-0.232-0.092-0.438-0.225-0.607c0.125-3.379,1.246-5.102,2.443-6.895
			c1.167-1.75,2.357-3.574,2.511-6.839l0.03-0.003V10.75H28.189z M20.959,2.198c0.117,0.05,0.23,0.104,0.347,0.158
			c0.149,0.069,0.301,0.14,0.446,0.216c0.113,0.061,0.224,0.127,0.334,0.191c0.142,0.082,0.28,0.164,0.416,0.253
			c0.108,0.071,0.213,0.147,0.318,0.223c0.131,0.095,0.26,0.188,0.385,0.289c0.103,0.081,0.199,0.166,0.297,0.251
			c0.121,0.105,0.239,0.212,0.354,0.322c0.095,0.091,0.185,0.185,0.272,0.278c0.11,0.115,0.219,0.231,0.322,0.354
			c0.086,0.1,0.168,0.2,0.247,0.303c0.099,0.125,0.194,0.253,0.287,0.383c0.075,0.106,0.149,0.216,0.222,0.326
			c0.086,0.134,0.168,0.271,0.248,0.407c0.064,0.114,0.129,0.229,0.189,0.347c0.074,0.143,0.145,0.288,0.21,0.435
			c0.056,0.12,0.108,0.24,0.158,0.362c0.062,0.15,0.114,0.305,0.169,0.46c0.043,0.124,0.086,0.248,0.124,0.375
			c0.047,0.159,0.086,0.321,0.124,0.483c0.029,0.129,0.062,0.257,0.088,0.387c0.031,0.167,0.055,0.338,0.078,0.509
			c0.018,0.13,0.037,0.258,0.05,0.39c0.003,0.035,0.002,0.071,0.005,0.106c-2.807-0.22-5.013-3.099-6.979-5.66
			c-0.065-0.086-0.129-0.168-0.194-0.253c0.669-0.757,1.081-1.411,1.19-1.999C20.765,2.128,20.863,2.16,20.959,2.198z M17.439,1.5
			c0.312,0,0.619,0.017,0.923,0.047c0.099,0.01,0.192,0.029,0.29,0.042c0.428,0.079,0.542,0.182,0.549,0.182h0.002
			c0.104,0.751-2.802,3.271-4.724,4.938c-2.394,2.077-4.846,4.204-6.108,6.142c-0.043-0.232-0.074-0.481-0.103-0.736
			c-0.008-0.076-0.022-0.148-0.03-0.229c-0.031-0.356-0.049-0.733-0.049-1.135C8.189,5.648,12.338,1.5,17.439,1.5z M24.4,17.446
			c-1.17,1.755-2.477,3.733-2.684,7.337h-8.555c-0.208-3.604-1.514-5.582-2.684-7.337c-0.527-0.791-1.036-1.568-1.443-2.474
			c0.33-1.839,3.697-4.765,6.427-7.132c1.161-1.007,2.158-1.883,2.962-2.658c0.021,0.025,0.039,0.05,0.06,0.075
			c2.085,2.719,4.646,6.043,8.174,6.241C26.498,14.271,25.481,15.826,24.4,17.446z"/>
		<circle cx="14.439" cy="11.575" r="1.938"/>
		<circle cx="20.377" cy="11.575" r="1.938"/>
		<path d="M17.439,16.717c-1.657,0-3-1.417-3-0.077c0,1.338,1.343,2.425,3,2.425s3-1.087,3-2.425
			C20.439,15.3,19.097,16.717,17.439,16.717z"/>
	</g>
</g>
</svg>