<?xml version="1.0" encoding="utf-8"?>
<svg width="18.516" height="18.632" viewBox="0 0 18.516 18.632" fill="none" xmlns="http://www.w3.org/2000/svg">
  <g>
    <path d="M21.5 0C22.3285 0 23 0.671461 23 1.5L23 1.5C23 2.32854 22.3285 3 21.5 3L1.5 3C0.671459 3 -9.53674e-07 2.32854 0 1.5L0 1.5C-9.53674e-07 0.67146 0.67146 -9.53674e-07 1.5 0L21.5 0Z" fill="#7653FC" transform="matrix(0.707 -0.707 0.707 0.707 0 16.51)" />
    <path d="M21.5 -9.53674e-07C22.3285 0 23 0.671461 23 1.5L23 1.5C23 2.32854 22.3285 3 21.5 3L1.5 3C0.67146 3 0 2.32854 0 1.5L0 1.5C0 0.67146 0.67146 0 1.5 0L21.5 -9.53674e-07Z" fill="#7653FC" transform="matrix(0.707 0.707 -0.707 0.707 2.253 0)" />
  </g>
</svg>