<?xml version="1.0" encoding="utf-8"?>
<svg width="30" height="30" viewBox="0 0 30 30" fill="none" xmlns="http://www.w3.org/2000/svg">
  <g>
    <g>
      <g>
        <path d="M15 0C6.72902 0 0 6.72902 0 15C0 23.271 6.72902 30 15 30C23.271 30 30 23.271 30 15C30 6.72902 23.271 0 15 0L15 0ZM15 27.6253C8.03824 27.6253 2.37469 21.9613 2.37469 15C2.37469 8.03865 8.03824 2.37469 15 2.37469C21.9613 2.37469 27.6253 8.03906 27.6253 15.0004C27.6253 21.9618 21.9613 27.6253 15 27.6253L15 27.6253Z" fill="#7653FC" fill-rule="evenodd" />
      </g>
    </g>
    <g transform="translate(3.887 17.662)">
      <g>
        <path d="M11.1135 0C6.8949 0 2.94779 2.11541 0 5.95606L1.8839 7.40145C4.37215 4.16004 7.64999 2.37469 11.1135 2.37469C14.5769 2.37469 17.8547 4.16004 20.3426 7.40145L22.2265 5.95606C19.2787 2.11541 15.332 0 11.1135 0L11.1135 0Z" fill="#7653FC" fill-rule="evenodd" />
      </g>
    </g>
    <g transform="translate(8.826 5.383)">
      <g>
        <path d="M6.17414 0C2.76967 0 0 2.78748 0 6.21369C0 9.6399 2.76967 12.4274 6.17414 12.4274C9.57861 12.4274 12.3483 9.63996 12.3483 6.21375C12.3483 2.78754 9.57861 0 6.17414 0L6.17414 0ZM6.17414 10.0528C4.0793 10.0528 2.37469 8.33074 2.37469 6.21369C2.37469 4.09664 4.0793 2.37463 6.17414 2.37463C8.26898 2.37463 9.97359 4.09705 9.97359 6.21369C9.97359 8.33033 8.26898 10.0528 6.17414 10.0528L6.17414 10.0528Z" fill="#7653FC" fill-rule="evenodd" />
      </g>
    </g>
  </g>
</svg>