<?xml version="1.0" encoding="utf-8"?>
<svg width="167.034" height="43" viewBox="0 0 167.034 43" fill="none" xmlns="http://www.w3.org/2000/svg">
  <defs>
    <clipPath id="clip_path_1">
      <rect width="94" height="18" />
    </clipPath>
    <clipPath id="clip_path_2">
      <rect width="16" height="11" />
    </clipPath>
    <clipPath id="clip_path_3">
      <rect width="16" height="10" />
    </clipPath>
  </defs>
  <g transform="translate(1 0)">
    <g>
      <g>
        <g>
          <g>
            <g>
              <g>
                <path d="M0 40.0002L1.5 40.0002L7.5 40.0002L7.5 40.0002C7.5 40.0002 121.5 40.0002 121.5 40.0002C121.5 40.0002 126.425 39.9492 126.5 36.0003C126.576 32.0513 126.5 4.00023 126.5 4.00023C126.5 4.00023 126.497 -0.0345993 122.5 0.000221252C118.504 0.0350494 7.5 0.000213623 7.5 0.000213623L2.5 0.000228882L2.5 0.000228882L0 0.000228882" fill="none" stroke-width="2" stroke="#7351F5" transform="translate(38.5 1)" />
                <path d="M0 35.1381L0 0L41.0208 0C41.0208 0 41.0208 30.6105 41.0208 30.6105C41.0195 33.1096 39.3832 35.1357 37.3641 35.1381C37.3641 35.1381 0 35.1381 0 35.1381L0 35.1381Z" fill="#FFFFFF" transform="translate(0.302 6.85)" />
                <g fill="#7351F5">
                  <path d="M2.61844 0C2.61844 0 39.3816 0 39.3816 0C40.828 0 42 1.33683 42 2.98653C42 2.98729 42 2.98803 42 2.98878C42 2.98878 42 6 42 6L1.20148e-06 6C1.20148e-06 6 1.20148e-06 2.98878 1.20148e-06 2.98878C-0.00131178 1.33908 1.17009 0.0015022 2.61647 0C2.61713 0 2.61778 0 2.61844 0C2.61844 0 2.61844 0 2.61844 0Z" />
                  <path d="M39.3816 0L2.61647 0C1.17009 0.0015022 -0.00131067 1.33908 1.10065e-06 2.98878L1.10065e-06 6L42 6L42 2.98653C42 1.33683 40.828 0 39.3816 0ZM41 5L41 2.98653Q41 1 39.3816 1L2.61724 1L2.61716 1Q0.998421 1.0019 1 2.98878L1 5L41 5Z" fill="#808080" fill-rule="evenodd" />
                </g>
                <g transform="translate(2.847 2.332)">
                  <path d="M0 0.899391C0 0.402671 0.325355 0 0.726701 0C1.12805 0 1.4534 0.402671 1.4534 0.899391C1.4534 1.39611 1.12805 1.79878 0.726701 1.79878C0.325355 1.79878 0 1.39611 0 0.899391Z" fill="#FFFFFF" fill-rule="evenodd" />
                </g>
                <g transform="translate(5.026 2.332)">
                  <path d="M0 0.899391C0 0.402671 0.325355 0 0.726701 0C1.12805 0 1.4534 0.402671 1.4534 0.899391C1.4534 1.39611 1.12805 1.79878 0.726701 1.79878C0.325355 1.79878 0 1.39611 0 0.899391Z" fill="#FFFFFF" fill-rule="evenodd" />
                </g>
                <g transform="translate(7.205 2.332)">
                  <path d="M0 0.899391C0 0.402671 0.325355 0 0.7267 0C1.12805 0 1.4534 0.402671 1.4534 0.899391C1.4534 1.39611 1.12805 1.79878 0.7267 1.79878C0.325355 1.79878 0 1.39611 0 0.899391Z" fill="#FFFFFF" fill-rule="evenodd" />
                </g>
                <path d="M25.8691 3.1584L0 3.1584L1.30225 0L25.8691 0L25.8691 3.1584Z" fill="#FFFFFF" fill-rule="evenodd" transform="translate(11.623 1.653)" />
                <g transform="translate(13.703 2.6)">
                  <path d="M0.266327 0C0.266327 0 0.373118 0.573803 0.373118 0.573803C0.395909 0.708388 0.418699 0.846198 0.438235 0.984007C0.438235 0.984007 0.442142 0.984007 0.442142 0.984007C0.462979 0.846198 0.49684 0.705971 0.526142 0.576221C0.526142 0.576221 0.656376 0 0.656376 0L0.866051 0C0.866051 0 0.996285 0.564132 0.996285 0.564132C1.02754 0.711612 1.05489 0.849422 1.07768 0.986425C1.07768 0.986425 1.08224 0.986425 1.08224 0.986425C1.09852 0.848616 1.12261 0.710806 1.14736 0.564132C1.14736 0.564132 1.26066 0 1.26066 0L1.51396 0L1.19359 1.26366L0.95461 1.26366C0.95461 1.26366 0.832842 0.749489 0.832842 0.749489C0.801585 0.617322 0.775539 0.482735 0.755353 0.346538C0.755353 0.346538 0.750795 0.346538 0.750795 0.346538C0.731912 0.482735 0.705864 0.617322 0.673307 0.749489C0.673307 0.749489 0.543073 1.26366 0.543073 1.26366L0.302141 1.26366L0 0L0.266327 0L0.266327 0Z" fill="#415E72" />
                  <path d="M0.265024 0C0.265024 0 0.371815 0.573803 0.371815 0.573803C0.394606 0.708388 0.417396 0.846198 0.436932 0.984007C0.436932 0.984007 0.438235 0.984007 0.438235 0.984007C0.458421 0.846198 0.492282 0.705971 0.521584 0.576221C0.521584 0.576221 0.651817 0 0.651817 0L0.861493 0C0.861493 0 0.991727 0.564132 0.991727 0.564132C1.02298 0.711612 1.05033 0.849422 1.07312 0.986425C1.07312 0.986425 1.07768 0.986425 1.07768 0.986425C1.09396 0.848616 1.11805 0.710806 1.1428 0.564132C1.1428 0.564132 1.2561 0 1.2561 0L1.51005 0L1.18903 1.26366L0.950051 1.26366C0.950051 1.26366 0.828283 0.749489 0.828283 0.749489C0.797027 0.617322 0.770981 0.482735 0.750795 0.346538C0.750795 0.346538 0.750795 0.346538 0.750795 0.346538C0.731912 0.482735 0.705865 0.617322 0.673307 0.749489C0.673307 0.749489 0.543073 1.26366 0.543073 1.26366L0.302141 1.26366L0 0L0.265024 0L0.265024 0Z" fill="#415E72" transform="translate(1.658 0)" />
                  <path d="M0.26763 0C0.26763 0 0.374421 0.573803 0.374421 0.573803C0.397211 0.708388 0.420002 0.846198 0.439537 0.984007C0.439537 0.984007 0.443445 0.984007 0.443445 0.984007C0.464282 0.846198 0.498142 0.705971 0.527445 0.576221C0.527445 0.576221 0.657678 0 0.657678 0L0.868005 0C0.868005 0 0.998238 0.564132 0.998238 0.564132C1.02949 0.711612 1.05684 0.849422 1.07963 0.986425C1.07963 0.986425 1.08419 0.986425 1.08419 0.986425C1.10047 0.848616 1.12456 0.710806 1.14931 0.564132C1.14931 0.564132 1.26261 0 1.26261 0L1.51917 0L1.19359 1.26366L0.954609 1.26366C0.954609 1.26366 0.832841 0.749489 0.832841 0.749489C0.801585 0.617322 0.775539 0.482735 0.755353 0.346538C0.755353 0.346538 0.750795 0.346538 0.750795 0.346538C0.731911 0.482735 0.705864 0.617322 0.673306 0.749489C0.673306 0.749489 0.543073 1.26366 0.543073 1.26366L0.302141 1.26366L0 0L0.26763 0L0.26763 0Z" fill="#415E72" transform="translate(3.312 0)" />
                  <path d="M0.000221252 0.205505C-0.00433683 0.0983199 0.0620813 0.00644755 0.149338 0C0.152593 0 0.1565 0 0.159757 0C0.251572 0.00725299 0.320594 0.104767 0.315385 0.217594C0.310176 0.32075 0.243757 0.402951 0.159757 0.410205C0.0731525 0.411817 0.00152397 0.326391 0.000221252 0.219206C0.000221252 0.215176 0.000221252 0.210341 0.000221252 0.205505C0.000221252 0.205505 0.000221252 0.205505 0.000221252 0.205505Z" fill="#415E72" transform="translate(4.923 0.882)" />
                </g>
                <g transform="translate(34.39 2.132)">
                  <rect width="1.756" height="0.403" fill="#FC836D" fill-rule="evenodd" transform="translate(0 0.899)" />
                  <path d="M0.230512 2.19932L0 1.91483L0.658979 1.10006L0 0.284485L0.230512 0L1.11935 1.10006L0.230512 2.19932Z" fill="#FC836D" fill-rule="evenodd" transform="translate(1.025 0)" />
                </g>
                <path d="M26.4451 0.805908L26.4451 10.754L0.651162 10.754L0.651162 0.805908L26.4451 0.805908L26.4451 0.805908ZM27.0963 0L0 0L0 11.5599L27.0963 11.5599L27.0963 0L27.0963 0Z" fill="#6344DF" transform="translate(7.265 14.777)" />
                <g transform="translate(12.028 17.795)">
                  <path d="M0.18428 5.92662L0 0L1.03014 0C1.03014 0 1.03731 2.63773 1.03731 2.63773C1.03014 3.35015 1.02363 4.02711 1.00865 4.55417C1.00865 4.55417 1.02298 4.55417 1.02298 4.55417C1.18642 3.97391 1.36354 3.37593 1.58363 2.65546C1.58363 2.65546 2.44317 1.53714e-06 2.44317 1.53714e-06L3.56578 1.53714e-06C3.56578 1.53714e-06 3.55211 2.64659 3.55211 2.64659C3.54494 3.35901 3.53062 3.94732 3.50978 4.52838C3.50978 4.52838 3.52345 4.52838 3.52345 4.52838C3.6869 3.91267 3.86401 3.27036 4.0496 2.63773C4.0496 2.63773 4.87853 1.53714e-06 4.87853 1.53714e-06L5.95295 1.53714e-06L3.84318 5.92662L2.72969 5.92662C2.72969 5.92662 2.69387 3.49118 2.69387 3.49118C2.69387 2.7973 2.70755 2.20173 2.7362 1.53042C2.7362 1.53042 2.72252 1.53042 2.72252 1.53042C2.54475 2.16386 2.38131 2.79649 2.13973 3.52664C2.13973 3.52664 1.32252 5.92743 1.32252 5.92743L0.18428 5.92662L0.18428 5.92662Z" fill="#FC836D" />
                  <path d="M0.18428 5.92662L0 0L1.03014 0C1.03014 0 1.03731 2.63773 1.03731 2.63773C1.03014 3.35015 1.02363 4.02711 1.00865 4.55417C1.00865 4.55417 1.02103 4.55417 1.02103 4.55417C1.18447 3.97391 1.36159 3.37593 1.58168 2.65546C1.58168 2.65546 2.44122 1.53714e-06 2.44122 1.53714e-06L3.56383 1.53714e-06C3.56383 1.53714e-06 3.55015 2.64659 3.55015 2.64659C3.54299 3.35901 3.52866 3.94732 3.50783 4.52838C3.50783 4.52838 3.5215 4.52838 3.5215 4.52838C3.68494 3.91267 3.86206 3.27036 4.04764 2.63773C4.04764 2.63773 4.87853 1.53714e-06 4.87853 1.53714e-06L5.951 1.53714e-06L3.84122 5.92662L2.72838 5.92662C2.72838 5.92662 2.69257 3.49118 2.69257 3.49118C2.69257 2.7973 2.70624 2.20173 2.73489 1.53042C2.73489 1.53042 2.72122 1.53042 2.72122 1.53042C2.54345 2.16386 2.38001 2.79649 2.13842 3.52664C2.13842 3.52664 1.32121 5.92743 1.32121 5.92743L0.18428 5.92662L0.18428 5.92662Z" fill="#FC836D" transform="translate(6.137 0)" />
                  <path d="M0.18428 5.92662L0 0L1.03014 0C1.03014 0 1.03731 2.63773 1.03731 2.63773C1.03014 3.35015 1.02363 4.02711 1.00866 4.55417C1.00866 4.55417 1.02298 4.55417 1.02298 4.55417C1.18643 3.97391 1.36354 3.37593 1.58364 2.65546C1.58364 2.65546 2.44317 1.53714e-06 2.44317 1.53714e-06L3.56578 1.53714e-06C3.56578 1.53714e-06 3.55211 2.64659 3.55211 2.64659C3.54494 3.35901 3.53062 3.94732 3.50978 4.52838C3.50978 4.52838 3.52346 4.52838 3.52346 4.52838C3.6869 3.91267 3.86402 3.27036 4.0496 2.63773C4.0496 2.63773 4.88049 1.53714e-06 4.88049 1.53714e-06L5.95361 1.53714e-06L3.84383 5.92662L2.72838 5.92662C2.72838 5.92662 2.69257 3.49118 2.69257 3.49118C2.69257 2.7973 2.70624 2.20173 2.73489 1.53042C2.73489 1.53042 2.72122 1.53042 2.72122 1.53042C2.54345 2.16386 2.38001 2.79649 2.13842 3.52664C2.13842 3.52664 1.32121 5.92743 1.32121 5.92743L0.18428 5.92662L0.18428 5.92662Z" fill="#FC836D" transform="translate(12.274 0)" />
                </g>
                <g transform="translate(46 0)">
                  <g transform="translate(15 11)">
                    <path d="M8.06396 12.4585L8.06396 13.916L2.40234 13.916L2.40234 12.4585L8.06396 12.4585ZM2.92236 3.25195L2.92236 13.916L1.08398 13.916L1.08398 3.25195L2.92236 3.25195ZM7.32422 7.70508L7.32422 9.14063L2.40234 9.14063L2.40234 7.70508L7.32422 7.70508ZM8.02734 3.25195L8.02734 4.7168L2.40234 4.7168L2.40234 3.25195L8.02734 3.25195ZM11.77 12.5171L13.7109 5.99121L15.542 5.99121L12.7881 13.916L11.6455 13.916L11.77 12.5171ZM10.2832 5.99121L12.2607 12.5464L12.356 13.916L11.2134 13.916L8.44482 5.99121L10.2832 5.99121ZM21.6138 5.99121L23.2178 5.99121L23.2178 13.6963Q23.2178 14.7656 22.7637 15.5127Q22.3096 16.2598 21.4966 16.6516Q20.6836 17.0435 19.6143 17.0435Q19.1602 17.0435 18.6072 16.9116Q18.0542 16.7798 17.5378 16.4905Q17.0215 16.2012 16.6772 15.7324L17.5049 14.6924Q17.9297 15.1978 18.4424 15.4321Q18.9551 15.6665 19.519 15.6665Q20.127 15.6665 20.5554 15.4431Q20.9839 15.2197 21.2183 14.7876Q21.4526 14.3555 21.4526 13.7329L21.4526 7.78564L21.6138 5.99121ZM16.2305 10.0415L16.2305 9.8877Q16.2305 8.98682 16.4502 8.24341Q16.6699 7.5 17.0801 6.96167Q17.4902 6.42334 18.0762 6.13403Q18.6621 5.84473 19.4019 5.84473Q20.1709 5.84473 20.7166 6.12305Q21.2622 6.40137 21.6284 6.91772Q21.9946 7.43408 22.2034 8.14819Q22.4121 8.8623 22.5146 9.73389L22.5146 10.2246Q22.4194 11.0742 22.1924 11.7773Q21.9653 12.4805 21.5918 12.9932Q21.2183 13.5059 20.6726 13.7842Q20.127 14.0625 19.3872 14.0625Q18.6621 14.0625 18.0798 13.7622Q17.4976 13.4619 17.0837 12.9199Q16.6699 12.3779 16.4502 11.6418Q16.2305 10.9058 16.2305 10.0415ZM17.9956 9.8877L17.9956 10.0415Q17.9956 10.5835 18.1018 11.0522Q18.208 11.521 18.4314 11.8762Q18.6548 12.2314 19.0027 12.4329Q19.3506 12.6343 19.8267 12.6343Q20.4492 12.6343 20.8484 12.3706Q21.2476 12.1069 21.4636 11.6565Q21.6797 11.2061 21.7676 10.6494L21.7676 9.32373Q21.7236 8.8916 21.5881 8.51807Q21.4526 8.14453 21.2256 7.86255Q20.9985 7.58057 20.6543 7.4231Q20.3101 7.26563 19.8413 7.26563Q19.3652 7.26563 19.0137 7.4707Q18.6621 7.67578 18.4387 8.03467Q18.2153 8.39355 18.1055 8.86963Q17.9956 9.3457 17.9956 9.8877ZM28.5352 14.0625Q27.6563 14.0625 26.9495 13.7732Q26.2427 13.4839 25.7483 12.9639Q25.2539 12.4438 24.9902 11.7407Q24.7266 11.0376 24.7266 10.2246L24.7266 9.93164Q24.7266 9.00146 24.9976 8.24707Q25.2686 7.49268 25.752 6.95435Q26.2354 6.41602 26.8945 6.13037Q27.5537 5.84473 28.3228 5.84473Q29.1724 5.84473 29.8096 6.13037Q30.4468 6.41602 30.8679 6.93237Q31.2891 7.44873 31.4978 8.15918Q31.7065 8.86963 31.7065 9.72656L31.7065 10.481L25.5835 10.481L25.5835 9.21387L29.9634 9.21387L29.9634 9.07471Q29.9487 8.59863 29.7766 8.18115Q29.6045 7.76367 29.2529 7.50732Q28.9014 7.25098 28.3154 7.25098Q27.876 7.25098 27.5354 7.43774Q27.1948 7.62451 26.9678 7.97607Q26.7407 8.32764 26.6199 8.82202Q26.499 9.31641 26.499 9.93164L26.499 10.2246Q26.499 10.7446 26.6418 11.1877Q26.7847 11.6309 27.063 11.9604Q27.3413 12.29 27.7368 12.4768Q28.1323 12.6636 28.6377 12.6636Q29.2749 12.6636 29.7729 12.4072Q30.271 12.1509 30.6372 11.6821L31.5674 12.583Q31.311 12.9565 30.9009 13.2971Q30.4907 13.6377 29.9011 13.8501Q29.3115 14.0625 28.5352 14.0625ZM34.8267 7.68311L34.8267 13.916L33.0615 13.916L33.0615 5.99121L34.7241 5.99121L34.8267 7.68311ZM34.5117 9.66064L33.9404 9.65332Q33.9478 8.81104 34.1785 8.10791Q34.4092 7.40479 34.823 6.89941Q35.2368 6.39404 35.8154 6.11938Q36.394 5.84473 37.1045 5.84473Q37.6758 5.84473 38.1409 6.0022Q38.606 6.15967 38.9392 6.51123Q39.2725 6.86279 39.4482 7.4231Q39.624 7.9834 39.624 8.79639L39.624 13.916L37.8516 13.916L37.8516 8.78906Q37.8516 8.21777 37.6868 7.88452Q37.522 7.55127 37.2107 7.40845Q36.8994 7.26563 36.438 7.26563Q35.9839 7.26563 35.625 7.45605Q35.2661 7.64648 35.0208 7.97607Q34.7754 8.30566 34.6436 8.73779Q34.5117 9.16992 34.5117 9.66064ZM47.168 3.25195L47.168 13.916L45.3296 13.916L45.3296 3.25195L47.168 3.25195ZM51.5186 7.91748L51.5186 9.375L46.6992 9.375L46.6992 7.91748L51.5186 7.91748ZM52.1265 3.25195L52.1265 4.7168L46.6992 4.7168L46.6992 3.25195L52.1265 3.25195ZM55.3052 5.99121L55.3052 13.916L53.5327 13.916L53.5327 5.99121L55.3052 5.99121ZM53.4155 3.91113Q53.4155 3.5083 53.6829 3.24097Q53.9502 2.97363 54.4263 2.97363Q54.895 2.97363 55.166 3.24097Q55.437 3.5083 55.437 3.91113Q55.437 4.30664 55.166 4.57031Q54.895 4.83398 54.4263 4.83398Q53.9502 4.83398 53.6829 4.57031Q53.4155 4.30664 53.4155 3.91113ZM59.1284 2.66602L59.1284 13.916L57.356 13.916L57.356 2.66602L59.1284 2.66602ZM60.7251 10.0415L60.7251 9.87305Q60.7251 9.01611 60.9741 8.28003Q61.2231 7.54395 61.6956 6.99829Q62.168 6.45264 62.8528 6.14868Q63.5376 5.84473 64.4019 5.84473Q65.2734 5.84473 65.9583 6.14868Q66.6431 6.45264 67.1191 6.99829Q67.5952 7.54395 67.8442 8.28003Q68.0933 9.01611 68.0933 9.87305L68.0933 10.0415Q68.0933 10.8984 67.8442 11.6309Q67.5952 12.3633 67.1191 12.9089Q66.6431 13.4546 65.9619 13.7585Q65.2808 14.0625 64.4165 14.0625Q63.5449 14.0625 62.8601 13.7585Q62.1753 13.4546 61.6992 12.9089Q61.2231 12.3633 60.9741 11.6309Q60.7251 10.8984 60.7251 10.0415ZM62.4902 9.87305L62.4902 10.0415Q62.4902 10.5762 62.6001 11.0522Q62.71 11.5283 62.9443 11.8872Q63.1787 12.2461 63.5449 12.4512Q63.9111 12.6563 64.4165 12.6563Q64.9072 12.6563 65.2698 12.4512Q65.6323 12.2461 65.8667 11.8872Q66.1011 11.5283 66.2146 11.0522Q66.3281 10.5762 66.3281 10.0415L66.3281 9.87305Q66.3281 9.3457 66.2146 8.87329Q66.1011 8.40088 65.863 8.03467Q65.625 7.66846 65.2625 7.45972Q64.8999 7.25098 64.4019 7.25098Q63.9038 7.25098 63.5413 7.45972Q63.1787 7.66846 62.9443 8.03467Q62.71 8.40088 62.6001 8.87329Q62.4902 9.3457 62.4902 9.87305ZM71.3232 7.68311L71.3232 13.916L69.5581 13.916L69.5581 5.99121L71.2207 5.99121L71.3232 7.68311ZM71.0083 9.66064L70.437 9.65332Q70.4443 8.81104 70.675 8.10791Q70.9058 7.40479 71.3196 6.89941Q71.7334 6.39404 72.312 6.11938Q72.8906 5.84473 73.6011 5.84473Q74.1724 5.84473 74.6375 6.0022Q75.1025 6.15967 75.4358 6.51123Q75.769 6.86279 75.9448 7.4231Q76.1206 7.9834 76.1206 8.79639L76.1206 13.916L74.3481 13.916L74.3481 8.78906Q74.3481 8.21777 74.1833 7.88452Q74.0186 7.55127 73.7073 7.40845Q73.396 7.26563 72.9346 7.26563Q72.4805 7.26563 72.1216 7.45605Q71.7627 7.64648 71.5173 7.97607Q71.272 8.30566 71.1401 8.73779Q71.0083 9.16992 71.0083 9.66064ZM77.5854 10.0415L77.5854 9.87305Q77.5854 9.01611 77.8345 8.28003Q78.0835 7.54395 78.5559 6.99829Q79.0283 6.45264 79.7131 6.14868Q80.3979 5.84473 81.2622 5.84473Q82.1338 5.84473 82.8186 6.14868Q83.5034 6.45264 83.9795 6.99829Q84.4556 7.54395 84.7046 8.28003Q84.9536 9.01611 84.9536 9.87305L84.9536 10.0415Q84.9536 10.8984 84.7046 11.6309Q84.4556 12.3633 83.9795 12.9089Q83.5034 13.4546 82.8223 13.7585Q82.1411 14.0625 81.2769 14.0625Q80.4053 14.0625 79.7205 13.7585Q79.0356 13.4546 78.5596 12.9089Q78.0835 12.3633 77.8345 11.6309Q77.5854 10.8984 77.5854 10.0415ZM79.3506 9.87305L79.3506 10.0415Q79.3506 10.5762 79.4604 11.0522Q79.5703 11.5283 79.8047 11.8872Q80.0391 12.2461 80.4053 12.4512Q80.7715 12.6563 81.2769 12.6563Q81.7676 12.6563 82.1301 12.4512Q82.4927 12.2461 82.7271 11.8872Q82.9614 11.5283 83.075 11.0522Q83.1885 10.5762 83.1885 10.0415L83.1885 9.87305Q83.1885 9.3457 83.075 8.87329Q82.9614 8.40088 82.7234 8.03467Q82.4854 7.66846 82.1228 7.45972Q81.7603 7.25098 81.2622 7.25098Q80.7642 7.25098 80.4016 7.45972Q80.0391 7.66846 79.8047 8.03467Q79.5703 8.40088 79.4604 8.87329Q79.3506 9.3457 79.3506 9.87305ZM88.9014 12.5171L90.8423 5.99121L92.6733 5.99121L89.9194 13.916L88.7769 13.916L88.9014 12.5171ZM87.4146 5.99121L89.3921 12.5464L89.4873 13.916L88.3447 13.916L85.5762 5.99121L87.4146 5.99121Z" fill="#5D5A55" clip-path="url(#clip_path_1)" />
                  </g>
                  <g>
                    <path d="M1.31055 6.67627L4.86084 8.03516L4.86084 9.30811L0.333008 7.31006L0.333008 6.4668L1.31055 6.67627ZM4.86084 5.56445L1.31055 6.94482L0.333008 7.13281L0.333008 6.28955L4.86084 4.29688L4.86084 5.56445ZM12.6221 6.89111L9.00732 5.54297L9.00732 4.2915L13.6479 6.28418L13.6479 7.13281L12.6221 6.89111ZM9.00732 8.05127L12.6328 6.67627L13.6479 6.46143L13.6479 7.30469L9.00732 9.30273L9.00732 8.05127Z" fill="#C594C5" clip-path="url(#clip_path_2)" />
                  </g>
                </g>
                <path d="M1 35C1 35 1 31.5761 1 29.4203C1 27.2645 1 26.3768 1 26.3768L1 0L41 0L41 29.4203L41 30.4348C41 30.4348 40.9354 34.5161 37 34.4928C33.0646 34.4694 0 34.4927 0 34.4927" fill="none" stroke-width="2" stroke="#6C7077" transform="translate(0 7)" />
                <path d="M1.31055 6.67627L4.86084 8.03516L4.86084 9.30811L0.333008 7.31006L0.333008 6.4668L1.31055 6.67627ZM4.86084 5.56445L1.31055 6.94482L0.333008 7.13281L0.333008 6.28955L4.86084 4.29688L4.86084 5.56445ZM9.6626 2.38477L6.61719 10.8765L5.60205 10.8765L8.65283 2.38477L9.6626 2.38477ZM14.1797 6.89111L10.5649 5.54297L10.5649 4.2915L15.2056 6.28418L15.2056 7.13281L14.1797 6.89111ZM10.5649 8.05127L14.1904 6.67627L15.2056 6.46143L15.2056 7.30469L10.5649 9.30273L10.5649 8.05127Z" fill="#C594C5" clip-path="url(#clip_path_3)" transform="translate(45.977 28)" />
              </g>
            </g>
          </g>
        </g>
      </g>
      <path d="M0 0.720592L1.08381 3.8147e-06L3.82361 2.24705L2.71832 2.95002L0 0.720592Z" fill="#5D5A55" fill-rule="evenodd" transform="matrix(0.974 0.225 -0.225 0.974 25.176 34)" />
      <path d="M0.763248 3.92659L0 0L7.25299 0.627594L0.763248 3.92659Z" fill="#5D5A55" fill-rule="evenodd" transform="matrix(-0.309 -0.951 0.951 -0.309 24.241 36)" />
    </g>
  </g>
</svg>