<?xml version="1.0" encoding="utf-8"?>
<svg width="141" height="35.643" viewBox="0 0 141 35.643" fill="none" xmlns="http://www.w3.org/2000/svg">
  <defs>
    <clipPath id="clip_path_1">
      <rect width="75" height="16" />
    </clipPath>
    <clipPath id="clip_path_2">
      <rect width="16" height="13.592" />
    </clipPath>
    <clipPath id="clip_path_3">
      <rect width="16" height="14.633" />
    </clipPath>
  </defs>
  <g transform="translate(1 0)">
    <g>
      <g>
        <g>
          <g>
            <g>
              <g>
                <g>
                  <g transform="translate(0 2.783)">
                    <path d="M0 29.1822L1.97699 30.4798L6.72884 30.4798L6.72884 30.4798C6.72884 30.4798 97.0139 30.4798 97.0139 30.4798C97.0139 30.4798 100.914 30.441 100.974 27.4319C101.033 24.4228 100.973 3.04813 100.973 3.04813C100.973 3.04813 100.971 -0.0263712 97.8055 0.000169992C94.6403 0.0267072 6.72884 0.000154734 6.72884 0.000154734L2.76899 0.000175476L2.76899 0.000175476L0.789063 0.000175476" fill="none" stroke-width="2" stroke="#7351F5" stroke-linecap="round" transform="translate(38 0)" />
                    <path d="M1 27.9305C1 27.9305 1 25.1982 1 23.4779C1 21.7575 1 21.0491 1 21.0491L1 0L41 0L41 23.4779L41 24.2874C41 24.2874 40.9354 27.5444 37 27.5258C33.0646 27.5071 0 27.5258 0 27.5258" fill="none" stroke-width="2" stroke="#6C7077" transform="translate(0 3.286)" />
                  </g>
                  <path d="M0 27.8182L0 0L41.0207 0C41.0207 0 41.0207 24.2338 41.0207 24.2338C41.0195 26.2123 39.3832 27.8163 37.3641 27.8182C37.3641 27.8182 0 27.8182 0 27.8182L0 27.8182Z" fill="#FFFFFF" fill-rule="evenodd" transform="translate(0.302 6.173)" />
                  <g fill="#7351F5" fill-rule="evenodd" transform="translate(0 0.749)">
                    <path d="M2.61844 0C2.61844 0 39.3816 0 39.3816 0C40.828 0 42 1.05834 42 2.36438C42 2.36498 42 2.36557 42 2.36616C42 2.36616 42 4.75009 42 4.75009L1.10267e-06 4.75009C1.10267e-06 4.75009 1.10267e-06 2.36616 1.10267e-06 2.36616C-0.00131187 1.06012 1.17009 0.00118971 2.61647 0C2.61713 0 2.61779 0 2.61844 0C2.61844 0 2.61844 0 2.61844 0Z" />
                    <path d="M39.3816 0L2.61648 0C1.17009 0.00118971 -0.00131077 1.06012 1.10082e-06 2.36616L1.10082e-06 4.75009L42 4.75009L42 2.36438C42 1.05834 40.828 0 39.3816 0ZM41 3.75009L41 2.36438Q41 1 39.3816 1L2.61737 1L2.6173 1Q1.91703 1.00058 1.43605 1.4355Q0.999464 1.83026 1 2.36616L1 3.75009L41 3.75009Z" fill="#808080" fill-rule="evenodd" />
                  </g>
                  <g transform="translate(2.847 2.596)">
                    <path d="M0 0.712215C0 0.318869 0.325355 0 0.726701 0C1.12805 0 1.4534 0.318869 1.4534 0.712215C1.4534 1.10556 1.12805 1.42443 0.726701 1.42443C0.325355 1.42443 0 1.10556 0 0.712215Z" fill="#FFFFFF" fill-rule="evenodd" />
                  </g>
                  <g transform="translate(5.026 2.596)">
                    <path d="M0 0.712215C0 0.318869 0.325355 0 0.726701 0C1.12805 0 1.4534 0.318869 1.4534 0.712215C1.4534 1.10556 1.12805 1.42443 0.726701 1.42443C0.325355 1.42443 0 1.10556 0 0.712215Z" fill="#FFFFFF" fill-rule="evenodd" />
                  </g>
                  <g transform="translate(7.205 2.596)">
                    <path d="M0 0.712215C0 0.318869 0.325355 0 0.7267 0C1.12805 0 1.4534 0.318869 1.4534 0.712215C1.4534 1.10556 1.12805 1.42443 0.7267 1.42443C0.325355 1.42443 0 1.10556 0 0.712215Z" fill="#FFFFFF" fill-rule="evenodd" />
                  </g>
                  <path d="M25.8691 2.50045L0 2.50045L1.30225 0L25.8691 0L25.8691 2.50045Z" fill="#FFFFFF" fill-rule="evenodd" transform="translate(11.623 2.058)" />
                  <g transform="translate(13.703 2.808)">
                    <path d="M0.266327 0C0.266327 0 0.373118 0.454384 0.373118 0.454384C0.395909 0.56096 0.418699 0.670089 0.438235 0.779218C0.438235 0.779218 0.442142 0.779218 0.442142 0.779218C0.462979 0.670089 0.49684 0.559045 0.526142 0.456299C0.526142 0.456299 0.656376 0 0.656376 0L0.866051 0C0.866051 0 0.996285 0.446726 0.996285 0.446726C1.02754 0.563513 1.05489 0.672642 1.07768 0.781133C1.07768 0.781133 1.08224 0.781133 1.08224 0.781133C1.09852 0.672004 1.12261 0.562875 1.14736 0.446726C1.14736 0.446726 1.26066 0 1.26066 0L1.51396 0L1.19359 1.00067L0.95461 1.00067C0.95461 1.00067 0.832842 0.593507 0.832842 0.593507C0.801585 0.488846 0.775539 0.382269 0.755353 0.274417C0.755353 0.274417 0.750795 0.274417 0.750795 0.274417C0.731912 0.382269 0.705864 0.488846 0.673307 0.593507C0.673307 0.593507 0.543073 1.00067 0.543073 1.00067L0.302141 1.00067L0 0L0.266327 0L0.266327 0Z" fill="#415E72" fill-rule="evenodd" />
                    <path d="M0.265024 0C0.265024 0 0.371815 0.454384 0.371815 0.454384C0.394606 0.56096 0.417396 0.670089 0.436932 0.779218C0.436932 0.779218 0.438235 0.779218 0.438235 0.779218C0.458421 0.670089 0.492281 0.559045 0.521584 0.456299C0.521584 0.456299 0.651818 0 0.651818 0L0.861493 0C0.861493 0 0.991727 0.446726 0.991727 0.446726C1.02298 0.563513 1.05033 0.672642 1.07312 0.781133C1.07312 0.781133 1.07768 0.781133 1.07768 0.781133C1.09396 0.672004 1.11805 0.562875 1.1428 0.446726C1.1428 0.446726 1.2561 0 1.2561 0L1.51005 0L1.18903 1.00067L0.950051 1.00067C0.950051 1.00067 0.828283 0.593507 0.828283 0.593507C0.797027 0.488846 0.770981 0.382269 0.750795 0.274417C0.750795 0.274417 0.750795 0.274417 0.750795 0.274417C0.731912 0.382269 0.705864 0.488846 0.673306 0.593507C0.673306 0.593507 0.543073 1.00067 0.543073 1.00067L0.302141 1.00067L0 0L0.265024 0L0.265024 0Z" fill="#415E72" fill-rule="evenodd" transform="translate(1.658 0)" />
                    <path d="M0.26763 0C0.26763 0 0.37442 0.454384 0.37442 0.454384C0.397211 0.56096 0.420002 0.670089 0.439537 0.779218C0.439537 0.779218 0.443444 0.779218 0.443444 0.779218C0.464282 0.670089 0.498142 0.559045 0.527445 0.456299C0.527445 0.456299 0.657678 0 0.657678 0L0.868005 0C0.868005 0 0.998238 0.446726 0.998238 0.446726C1.02949 0.563513 1.05684 0.672642 1.07963 0.781133C1.07963 0.781133 1.08419 0.781133 1.08419 0.781133C1.10047 0.672004 1.12456 0.562875 1.14931 0.446726C1.14931 0.446726 1.26261 0 1.26261 0L1.51917 0L1.19359 1.00067L0.954609 1.00067C0.954609 1.00067 0.832841 0.593507 0.832841 0.593507C0.801585 0.488846 0.775539 0.382269 0.755353 0.274417C0.755353 0.274417 0.750794 0.274417 0.750794 0.274417C0.731911 0.382269 0.705864 0.488846 0.673306 0.593507C0.673306 0.593507 0.543073 1.00067 0.543073 1.00067L0.302141 1.00067L0 0L0.26763 0L0.26763 0Z" fill="#415E72" fill-rule="evenodd" transform="translate(3.312 0)" />
                    <path d="M0.000221252 0.162736C-0.00433683 0.0778578 0.0620813 0.00510567 0.149338 0C0.152593 0 0.1565 0 0.159757 0C0.251572 0.0057435 0.320594 0.0829635 0.315385 0.172309C0.310176 0.253996 0.243757 0.31909 0.159757 0.324834C0.0731525 0.32611 0.00152397 0.258463 0.000221252 0.173585C0.000221252 0.170394 0.000221252 0.166565 0.000221252 0.162736C0.000221252 0.162736 0.000221252 0.162736 0.000221252 0.162736Z" fill="#415E72" fill-rule="evenodd" transform="translate(4.923 0.698)" />
                  </g>
                  <g transform="translate(34.39 2.437)">
                    <rect width="1.756" height="0.319" fill="#FC836D" fill-rule="evenodd" transform="translate(0 0.712)" />
                    <path d="M0.230512 1.74161L0 1.51633L0.658979 0.871122L0 0.225279L0.230512 0L1.11935 0.871122L0.230512 1.74161Z" fill="#FC836D" fill-rule="evenodd" transform="translate(1.025 0)" />
                  </g>
                  <path d="M26.4451 0.638168L26.4451 8.51589L0.651169 8.51589L0.651169 0.638168L26.4451 0.638168L26.4451 0.638168ZM27.0963 0L0 0L0 9.15409L27.0963 9.15409L27.0963 0L27.0963 0Z" fill="#6344DF" transform="translate(7.265 12.448)" />
                  <g transform="translate(12.028 14.837)">
                    <path d="M0.18428 4.6932L0 0L1.03014 0C1.03014 0 1.03731 2.08877 1.03731 2.08877C1.03014 2.65293 1.02363 3.189 1.00865 3.60637C1.00865 3.60637 1.02298 3.60637 1.02298 3.60637C1.18642 3.14688 1.36354 2.67335 1.58363 2.10281C1.58363 2.10281 2.44317 1.21724e-06 2.44317 1.21724e-06L3.56578 1.21724e-06C3.56578 1.21724e-06 3.55211 2.09579 3.55211 2.09579C3.54494 2.65995 3.53062 3.12582 3.50978 3.58595C3.50978 3.58595 3.52345 3.58595 3.52345 3.58595C3.6869 3.09838 3.86401 2.58975 4.0496 2.08877C4.0496 2.08877 4.87853 1.21724e-06 4.87853 1.21724e-06L5.95295 1.21724e-06L3.84318 4.6932L2.72969 4.6932C2.72969 4.6932 2.69387 2.76461 2.69387 2.76461C2.69387 2.21514 2.70755 1.74352 2.7362 1.21191C2.7362 1.21191 2.72252 1.21191 2.72252 1.21191C2.54475 1.71352 2.38131 2.2145 2.13973 2.79269C2.13973 2.79269 1.32252 4.69384 1.32252 4.69384L0.18428 4.6932L0.18428 4.6932Z" fill="#FC836D" fill-rule="evenodd" />
                    <path d="M0.18428 4.6932L0 0L1.03014 0C1.03014 0 1.03731 2.08877 1.03731 2.08877C1.03014 2.65293 1.02363 3.189 1.00865 3.60637C1.00865 3.60637 1.02103 3.60637 1.02103 3.60637C1.18447 3.14688 1.36159 2.67335 1.58168 2.10281C1.58168 2.10281 2.44122 1.21724e-06 2.44122 1.21724e-06L3.56383 1.21724e-06C3.56383 1.21724e-06 3.55015 2.09579 3.55015 2.09579C3.54299 2.65995 3.52866 3.12582 3.50783 3.58595C3.50783 3.58595 3.5215 3.58595 3.5215 3.58595C3.68494 3.09838 3.86206 2.58975 4.04764 2.08877C4.04764 2.08877 4.87853 1.21724e-06 4.87853 1.21724e-06L5.951 1.21724e-06L3.84122 4.6932L2.72838 4.6932C2.72838 4.6932 2.69257 2.76461 2.69257 2.76461C2.69257 2.21514 2.70624 1.74352 2.73489 1.21191C2.73489 1.21191 2.72122 1.21191 2.72122 1.21191C2.54345 1.71352 2.38001 2.2145 2.13842 2.79269C2.13842 2.79269 1.32121 4.69384 1.32121 4.69384L0.18428 4.6932L0.18428 4.6932Z" fill="#FC836D" fill-rule="evenodd" transform="translate(6.137 0)" />
                    <path d="M0.18428 4.6932L0 0L1.03014 0C1.03014 0 1.03731 2.08877 1.03731 2.08877C1.03014 2.65293 1.02363 3.189 1.00866 3.60637C1.00866 3.60637 1.02298 3.60637 1.02298 3.60637C1.18643 3.14688 1.36354 2.67335 1.58364 2.10281C1.58364 2.10281 2.44317 1.21724e-06 2.44317 1.21724e-06L3.56578 1.21724e-06C3.56578 1.21724e-06 3.55211 2.09579 3.55211 2.09579C3.54494 2.65995 3.53062 3.12582 3.50978 3.58595C3.50978 3.58595 3.52346 3.58595 3.52346 3.58595C3.6869 3.09838 3.86402 2.58975 4.0496 2.08877C4.0496 2.08877 4.88049 1.21724e-06 4.88049 1.21724e-06L5.95361 1.21724e-06L3.84383 4.6932L2.72838 4.6932C2.72838 4.6932 2.69257 2.76461 2.69257 2.76461C2.69257 2.21514 2.70624 1.74352 2.73489 1.21191C2.73489 1.21191 2.72122 1.21191 2.72122 1.21191C2.54345 1.71352 2.38001 2.2145 2.13842 2.79269C2.13842 2.79269 1.32121 4.69384 1.32121 4.69384L0.18428 4.6932L0.18428 4.6932Z" fill="#FC836D" fill-rule="evenodd" transform="translate(12.274 0)" />
                  </g>
                  <g transform="translate(45 0)">
                    <g transform="translate(15 10)">
                      <path d="M6.45117 9.9668L6.45117 11.1328L1.92188 11.1328L1.92188 9.9668L6.45117 9.9668ZM2.33789 2.60156L2.33789 11.1328L0.867188 11.1328L0.867188 2.60156L2.33789 2.60156ZM5.85938 6.16406L5.85938 7.3125L1.92188 7.3125L1.92188 6.16406L5.85938 6.16406ZM6.42188 2.60156L6.42188 3.77344L1.92188 3.77344L1.92188 2.60156L6.42188 2.60156ZM9.41602 10.0137L10.9688 4.79297L12.4336 4.79297L10.2305 11.1328L9.31641 11.1328L9.41602 10.0137ZM8.22656 4.79297L9.80859 10.0371L9.88477 11.1328L8.9707 11.1328L6.75586 4.79297L8.22656 4.79297ZM17.291 4.79297L18.5742 4.79297L18.5742 10.957Q18.5742 11.8125 18.2109 12.4102Q17.8477 13.0078 17.1973 13.3213Q16.5469 13.6348 15.6914 13.6348Q15.3281 13.6348 14.8857 13.5293Q14.4434 13.4238 14.0303 13.1924Q13.6172 12.9609 13.3418 12.5859L14.0039 11.7539Q14.3438 12.1582 14.7539 12.3457Q15.1641 12.5332 15.6152 12.5332Q16.1016 12.5332 16.4443 12.3545Q16.7871 12.1758 16.9746 11.8301Q17.1621 11.4844 17.1621 10.9863L17.1621 6.22852L17.291 4.79297ZM12.9844 8.0332L12.9844 7.91016Q12.9844 7.18945 13.1602 6.59473Q13.3359 6 13.6641 5.56934Q13.9922 5.13867 14.4609 4.90723Q14.9297 4.67578 15.5215 4.67578Q16.1367 4.67578 16.5732 4.89844Q17.0098 5.12109 17.3027 5.53418Q17.5957 5.94727 17.7627 6.51855Q17.9297 7.08984 18.0117 7.78711L18.0117 8.17969Q17.9355 8.85938 17.7539 9.42188Q17.5723 9.98438 17.2734 10.3945Q16.9746 10.8047 16.5381 11.0273Q16.1016 11.25 15.5098 11.25Q14.9297 11.25 14.4639 11.0098Q13.998 10.7695 13.667 10.3359Q13.3359 9.90234 13.1602 9.31348Q12.9844 8.72461 12.9844 8.0332ZM14.3965 7.91016L14.3965 8.0332Q14.3965 8.4668 14.4814 8.8418Q14.5664 9.2168 14.7451 9.50098Q14.9238 9.78516 15.2021 9.94629Q15.4805 10.1074 15.8613 10.1074Q16.3594 10.1074 16.6787 9.89648Q16.998 9.68555 17.1709 9.3252Q17.3438 8.96484 17.4141 8.51953L17.4141 7.45898Q17.3789 7.11328 17.2705 6.81445Q17.1621 6.51563 16.9805 6.29004Q16.7988 6.06445 16.5234 5.93848Q16.248 5.8125 15.873 5.8125Q15.4922 5.8125 15.2109 5.97656Q14.9297 6.14063 14.751 6.42773Q14.5723 6.71484 14.4844 7.0957Q14.3965 7.47656 14.3965 7.91016ZM22.8281 11.25Q22.125 11.25 21.5596 11.0186Q20.9941 10.7871 20.5986 10.3711Q20.2031 9.95508 19.9922 9.39258Q19.7813 8.83008 19.7813 8.17969L19.7813 7.94531Q19.7813 7.20117 19.998 6.59766Q20.2148 5.99414 20.6016 5.56348Q20.9883 5.13281 21.5156 4.9043Q22.043 4.67578 22.6582 4.67578Q23.3379 4.67578 23.8477 4.9043Q24.3574 5.13281 24.6943 5.5459Q25.0313 5.95898 25.1982 6.52734Q25.3652 7.0957 25.3652 7.78125L25.3652 8.38477L20.4668 8.38477L20.4668 7.37109L23.9707 7.37109L23.9707 7.25977Q23.959 6.87891 23.8213 6.54492Q23.6836 6.21094 23.4023 6.00586Q23.1211 5.80078 22.6523 5.80078Q22.3008 5.80078 22.0283 5.9502Q21.7559 6.09961 21.5742 6.38086Q21.3926 6.66211 21.2959 7.05762Q21.1992 7.45313 21.1992 7.94531L21.1992 8.17969Q21.1992 8.5957 21.3135 8.9502Q21.4277 9.30469 21.6504 9.56836Q21.873 9.83203 22.1895 9.98145Q22.5059 10.1309 22.9102 10.1309Q23.4199 10.1309 23.8184 9.92578Q24.2168 9.7207 24.5098 9.3457L25.2539 10.0664Q25.0488 10.3652 24.7207 10.6377Q24.3926 10.9102 23.9209 11.0801Q23.4492 11.25 22.8281 11.25ZM27.8613 6.14648L27.8613 11.1328L26.4492 11.1328L26.4492 4.79297L27.7793 4.79297L27.8613 6.14648ZM27.6094 7.72852L27.1523 7.72266Q27.1582 7.04883 27.3428 6.48633Q27.5273 5.92383 27.8584 5.51953Q28.1895 5.11523 28.6523 4.89551Q29.1152 4.67578 29.6836 4.67578Q30.1406 4.67578 30.5127 4.80176Q30.8848 4.92773 31.1514 5.20898Q31.418 5.49024 31.5586 5.93848Q31.6992 6.38672 31.6992 7.03711L31.6992 11.1328L30.2813 11.1328L30.2813 7.03125Q30.2813 6.57422 30.1494 6.30762Q30.0176 6.04102 29.7686 5.92676Q29.5195 5.8125 29.1504 5.8125Q28.7871 5.8125 28.5 5.96484Q28.2129 6.11719 28.0166 6.38086Q27.8203 6.64453 27.7148 6.99023Q27.6094 7.33594 27.6094 7.72852ZM37.7344 2.60156L37.7344 11.1328L36.2637 11.1328L36.2637 2.60156L37.7344 2.60156ZM41.2148 6.33398L41.2148 7.5L37.3594 7.5L37.3594 6.33398L41.2148 6.33398ZM41.7012 2.60156L41.7012 3.77344L37.3594 3.77344L37.3594 2.60156L41.7012 2.60156ZM44.2441 4.79297L44.2441 11.1328L42.8262 11.1328L42.8262 4.79297L44.2441 4.79297ZM42.7324 3.12891Q42.7324 2.80664 42.9463 2.59277Q43.1602 2.37891 43.541 2.37891Q43.916 2.37891 44.1328 2.59277Q44.3496 2.80664 44.3496 3.12891Q44.3496 3.44531 44.1328 3.65625Q43.916 3.86719 43.541 3.86719Q43.1602 3.86719 42.9463 3.65625Q42.7324 3.44531 42.7324 3.12891ZM47.3027 2.13281L47.3027 11.1328L45.8848 11.1328L45.8848 2.13281L47.3027 2.13281ZM48.5801 8.0332L48.5801 7.89844Q48.5801 7.21289 48.7793 6.62402Q48.9785 6.03516 49.3564 5.59863Q49.7344 5.16211 50.2822 4.91895Q50.8301 4.67578 51.5215 4.67578Q52.2188 4.67578 52.7666 4.91895Q53.3145 5.16211 53.6953 5.59863Q54.0762 6.03516 54.2754 6.62402Q54.4746 7.21289 54.4746 7.89844L54.4746 8.0332Q54.4746 8.71875 54.2754 9.30469Q54.0762 9.89063 53.6953 10.3271Q53.3145 10.7637 52.7695 11.0068Q52.2246 11.25 51.5332 11.25Q50.8359 11.25 50.2881 11.0068Q49.7402 10.7637 49.3594 10.3271Q48.9785 9.89063 48.7793 9.30469Q48.5801 8.71875 48.5801 8.0332ZM49.9922 7.89844L49.9922 8.0332Q49.9922 8.46094 50.0801 8.8418Q50.168 9.22266 50.3555 9.50977Q50.543 9.79688 50.8359 9.96094Q51.1289 10.125 51.5332 10.125Q51.9258 10.125 52.2158 9.96094Q52.5059 9.79688 52.6934 9.50977Q52.8809 9.22266 52.9717 8.8418Q53.0625 8.46094 53.0625 8.0332L53.0625 7.89844Q53.0625 7.47656 52.9717 7.09863Q52.8809 6.7207 52.6904 6.42773Q52.5 6.13477 52.21 5.96777Q51.9199 5.80078 51.5215 5.80078Q51.123 5.80078 50.833 5.96777Q50.543 6.13477 50.3555 6.42773Q50.168 6.7207 50.0801 7.09863Q49.9922 7.47656 49.9922 7.89844ZM57.0586 6.14648L57.0586 11.1328L55.6465 11.1328L55.6465 4.79297L56.9766 4.79297L57.0586 6.14648ZM56.8066 7.72852L56.3496 7.72266Q56.3555 7.04883 56.54 6.48633Q56.7246 5.92383 57.0557 5.51953Q57.3867 5.11523 57.8496 4.89551Q58.3125 4.67578 58.8809 4.67578Q59.3379 4.67578 59.71 4.80176Q60.082 4.92773 60.3486 5.20898Q60.6152 5.49024 60.7559 5.93848Q60.8965 6.38672 60.8965 7.03711L60.8965 11.1328L59.4785 11.1328L59.4785 7.03125Q59.4785 6.57422 59.3467 6.30762Q59.2148 6.04102 58.9658 5.92676Q58.7168 5.8125 58.3477 5.8125Q57.9844 5.8125 57.6973 5.96484Q57.4102 6.11719 57.2139 6.38086Q57.0176 6.64453 56.9121 6.99023Q56.8066 7.33594 56.8066 7.72852ZM62.0684 8.0332L62.0684 7.89844Q62.0684 7.21289 62.2676 6.62402Q62.4668 6.03516 62.8447 5.59863Q63.2227 5.16211 63.7705 4.91895Q64.3184 4.67578 65.0098 4.67578Q65.707 4.67578 66.2549 4.91895Q66.8027 5.16211 67.1836 5.59863Q67.5645 6.03516 67.7637 6.62402Q67.9629 7.21289 67.9629 7.89844L67.9629 8.0332Q67.9629 8.71875 67.7637 9.30469Q67.5645 9.89063 67.1836 10.3271Q66.8027 10.7637 66.2578 11.0068Q65.7129 11.25 65.0215 11.25Q64.3242 11.25 63.7764 11.0068Q63.2285 10.7637 62.8477 10.3271Q62.4668 9.89063 62.2676 9.30469Q62.0684 8.71875 62.0684 8.0332ZM63.4805 7.89844L63.4805 8.0332Q63.4805 8.46094 63.5684 8.8418Q63.6563 9.22266 63.8438 9.50977Q64.0313 9.79688 64.3242 9.96094Q64.6172 10.125 65.0215 10.125Q65.4141 10.125 65.7041 9.96094Q65.9941 9.79688 66.1816 9.50977Q66.3691 9.22266 66.46 8.8418Q66.5508 8.46094 66.5508 8.0332L66.5508 7.89844Q66.5508 7.47656 66.46 7.09863Q66.3691 6.7207 66.1787 6.42773Q65.9883 6.13477 65.6982 5.96777Q65.4082 5.80078 65.0098 5.80078Q64.6113 5.80078 64.3213 5.96777Q64.0313 6.13477 63.8438 6.42773Q63.6563 6.7207 63.5684 7.09863Q63.4805 7.47656 63.4805 7.89844ZM71.1211 10.0137L72.6738 4.79297L74.1387 4.79297L71.9355 11.1328L71.0215 11.1328L71.1211 10.0137ZM69.9316 4.79297L71.5137 10.0371L71.5898 11.1328L70.6758 11.1328L68.4609 4.79297L69.9316 4.79297Z" fill="#5D5A55" clip-path="url(#clip_path_1)" />
                    </g>
                    <g>
                      <path d="M1.31055 6.67627L4.86084 8.03516L4.86084 9.30811L0.333008 7.31006L0.333008 6.4668L1.31055 6.67627ZM4.86084 5.56445L1.31055 6.94482L0.333008 7.13281L0.333008 6.28955L4.86084 4.29688L4.86084 5.56445ZM12.6221 6.89111L9.00732 5.54297L9.00732 4.2915L13.6479 6.28418L13.6479 7.13281L12.6221 6.89111ZM9.00732 8.05127L12.6328 6.67627L13.6479 6.46143L13.6479 7.30469L9.00732 9.30273L9.00732 8.05127Z" fill="#C594C5" clip-path="url(#clip_path_2)" transform="translate(0 2)" />
                    </g>
                  </g>
                  <path d="M1.19141 6.06934L4.41895 7.30469L4.41895 8.46191L0.302734 6.64551L0.302734 5.87891L1.19141 6.06934ZM4.41895 5.05859L1.19141 6.31348L0.302734 6.48438L0.302734 5.71777L4.41895 3.90625L4.41895 5.05859ZM8.78418 2.16797L6.01563 9.8877L5.09277 9.8877L7.86621 2.16797L8.78418 2.16797ZM12.8906 6.26465L9.60449 5.03906L9.60449 3.90137L13.8232 5.71289L13.8232 6.48438L12.8906 6.26465ZM9.60449 7.31934L12.9004 6.06934L13.8232 5.87402L13.8232 6.64063L9.60449 8.45703L9.60449 7.31934Z" fill="#C594C5" clip-path="url(#clip_path_3)" transform="translate(45 21.011)" />
                </g>
              </g>
            </g>
          </g>
        </g>
        <path d="M0 0.362854L1.21811 0L3.38223 2.22129L2.14713 2.56671L0 0.362854Z" fill="#5D5A55" fill-rule="evenodd" transform="translate(25.014 27.86)" />
        <path d="M5.14298 4.07927L1.64443 5.61456L0 0L5.14298 4.07927Z" fill="#5D5A55" fill-rule="evenodd" transform="translate(22.597 23.635)" />
      </g>
    </g>
  </g>
</svg>