<?xml version="1.0" encoding="utf-8"?>
<svg width="24" height="22.498" viewBox="0 0 24 22.498" fill="#787D85" xmlns="http://www.w3.org/2000/svg">
  <g>
    <path d="M0.71374 0L0.712056 0C0.522897 0 0.344984 0.0691235 0.21064 0.194745C0.0748148 0.321755 0 0.490871 0 0.670908L0 10.7311C0 11.1 0.321415 11.4008 0.716568 11.4018C2.38243 11.4055 5.17342 11.731 7.09881 13.6198L7.09881 3.09155C7.09881 2.9665 7.06474 2.84902 7.00043 2.75181C5.42015 0.366133 2.38337 0.00366139 0.71374 0L0.71374 0Z" fill="#787D85" fill-rule="evenodd" transform="translate(4.346 3.75)" />
    <path d="M7.09875 10.7311L7.09875 0.670907C7.09875 0.490871 7.02393 0.321755 6.88811 0.194745C6.75376 0.0691233 6.57571 0 6.38676 0L6.38501 0C4.71544 0.00372458 1.67866 0.366196 0.0983162 2.75187C0.0340061 2.84908 0 2.96656 0 3.09161L0 13.6198C1.92539 11.731 4.71638 11.4055 6.38224 11.4018C6.77733 11.4008 7.09875 11.1 7.09875 10.7311L7.09875 10.7311Z" fill="#787D85" fill-rule="evenodd" transform="translate(12.556 3.75)" />
    <path d="M7.73679 0L7.21787 0L7.21787 8.41102C7.21787 9.35293 6.39921 10.121 5.39288 10.1233C3.97988 10.1265 1.65004 10.3855 0 11.8495C2.85375 11.1945 5.86211 11.6202 7.57659 11.9865C7.79067 12.0322 8.01188 11.985 8.1834 11.8568C8.35431 11.729 8.45235 11.5379 8.45235 11.3328L8.45235 0.670781C8.45242 0.300923 8.13134 0 7.73679 0L7.73679 0Z" fill="#787D85" fill-rule="evenodd" transform="translate(13.548 6.07)" />
    <path d="M1.23448 8.41103L1.23448 0L0.715558 0C0.321079 0 0 0.300924 0 0.670782L0 11.3326C0 11.5378 0.0980475 11.7288 0.268957 11.8567C0.440338 11.9847 0.661349 12.0322 0.87576 11.9863C2.59024 11.62 5.59867 11.1943 8.45228 11.8493C6.80231 10.3854 4.47247 10.1264 3.05947 10.1233C2.05321 10.121 1.23448 9.35294 1.23448 8.41103L1.23448 8.41103Z" fill-rule="evenodd" transform="translate(2 6.07)" />
  </g>
</svg>