<?xml version="1.0" encoding="utf-8"?>
<svg width="24" height="24" viewBox="0 0 24 24" fill="none" xmlns="http://www.w3.org/2000/svg">
  <g>
    <g transform="translate(0 1.747)">
      <path d="M6.32812 2.541L0 0L0 1.83581C0 3.84014 2.72048 5.35144 6.32812 5.35144C9.93577 5.35144 12.6562 3.84014 12.6562 1.83581L12.6562 0L6.32812 2.541L6.32812 2.541Z" fill="#7653FC" fill-rule="evenodd" transform="translate(5.672 8.604)" />
      <path d="M24 14.6585C24 13.743 23.4104 12.9698 22.5938 12.6786L22.5938 5.39452L24 4.81472L12 0L0 4.81472L12 9.62949L21.1875 5.95917L21.1875 12.6786C20.3708 12.9698 19.7812 13.743 19.7812 14.6585C19.7812 15.4966 20.2762 16.216 20.986 16.556L19.8177 20.061L21.1511 20.5059L21.8906 18.2874L22.6301 20.5059L23.9636 20.061L22.7953 16.556C23.505 16.2161 24 15.4966 24 14.6585L24 14.6585Z" fill="#7653FC" fill-rule="evenodd" />
    </g>
  </g>
</svg>