<?xml version="1.0" encoding="utf-8"?>
<svg width="24" height="22.498" viewBox="0 0 24 22.498" fill="none" xmlns="http://www.w3.org/2000/svg">
  <g>
    <path d="M11.415 1.35587L3.24675 5.27619L0 3.77865L8.02425 0.0643308C8.20425 -0.0214436 8.42025 -0.0214436 8.60925 0.0643308L11.415 1.35587L11.415 1.35587Z" fill="#787D85" fill-rule="evenodd" transform="translate(3.675 2.812)" />
    <path d="M11.874 1.71198L3.5625 5.57183L0.45 4.13405L0 3.91962L8.17724 0L8.62724 0.213733L11.874 1.71198L11.874 1.71198Z" fill="#787D85" fill-rule="evenodd" transform="translate(8.442 4.879)" />
    <path d="M8.3385 3.85985L8.3295 11.9824L0.369 8.08811C0.144 7.97703 0 7.75416 0 7.51441L0 0L3.3735 1.558L3.3735 4.29716C3.3735 4.64799 3.6795 4.93906 4.0485 4.93906C4.4175 4.93906 4.7235 4.64799 4.7235 4.29716L4.7235 2.19147L5.1735 2.39676L8.3385 3.85985L8.3385 3.85985Z" fill="#787D85" fill-rule="evenodd" transform="translate(3 7.703)" />
    <path d="M8.3115 0L0.00899982 3.84298L0 11.9655L8.3205 7.89266L8.3115 0L8.3115 0Z" fill="#787D85" fill-rule="evenodd" transform="translate(12.68 7.712)" />
  </g>
</svg>