<?xml version="1.0" encoding="utf-8"?>
<svg width="148" height="44" viewBox="0 0 148 44" fill="none" xmlns="http://www.w3.org/2000/svg">
  <defs>
    <clipPath id="clip_path_1">
      <rect width="103" height="17" />
    </clipPath>
    <clipPath id="clip_path_2">
      <rect width="22" height="21" />
    </clipPath>
  </defs>
  <g>
    <g>
      <path d="M0 34.8137L0 0L41.3438 0C41.3438 0 41.3438 30.3278 41.3438 30.3278C41.3424 32.8039 39.6933 34.8113 37.6583 34.8137C37.6583 34.8137 0 34.8137 0 34.8137L0 34.8137Z" fill="#FFFFFF" transform="translate(0.328 6.787)" />
      <path d="M41.3438 0.798492C41.3438 0.798492 41.3438 30.7271 41.3438 30.7271C41.3424 32.9828 39.8409 34.8113 37.987 34.8137C37.987 34.8137 0.65625 34.8137 0.65625 34.8137L0.65625 0.798492L41.3438 0.798492L41.3438 0.798492ZM42 8.58307e-06L0 8.58307e-06L0 35.6122C0 35.6122 37.987 35.6122 37.987 35.6122C40.2032 35.6122 42 33.4259 42 30.7295C42 30.7287 42 30.7279 42 30.7271C42 30.7271 42 8.58307e-06 42 8.58307e-06L42 8.58307e-06Z" fill="#6C7077" transform="translate(0 6.388)" />
      <path d="M2.61844 0C2.61844 0 39.3816 0 39.3816 0C40.8279 0 42 1.42608 42 3.18593C42 3.18673 42 3.18753 42 3.18833C42 3.18833 42 6.40061 42 6.40061L1.10186e-06 6.40061C1.10186e-06 6.40061 1.10186e-06 3.18833 1.10186e-06 3.18833C-0.0013114 1.42848 1.17009 0.00159722 2.61647 0C2.61713 0 2.61778 0 2.61844 0C2.61844 0 2.61844 0 2.61844 0Z" fill="#7351F5" />
      <g transform="translate(2.893 2.311)">
        <path d="M0 0.891103C0 0.39896 0.327895 0 0.732375 0C1.13685 0 1.46475 0.39896 1.46475 0.891103C1.46475 1.38325 1.13685 1.78221 0.732375 1.78221C0.327895 1.78221 0 1.38325 0 0.891103Z" fill="#FFFFFF" fill-rule="evenodd" />
      </g>
      <g transform="translate(5.089 2.311)">
        <path d="M0 0.891103C0 0.39896 0.327895 0 0.732375 0C1.13685 0 1.46475 0.39896 1.46475 0.891103C1.46475 1.38325 1.13685 1.78221 0.732375 1.78221C0.327895 1.78221 0 1.38325 0 0.891103Z" fill="#FFFFFF" fill-rule="evenodd" />
      </g>
      <g transform="translate(7.285 2.311)">
        <path d="M0 0.891103C0 0.39896 0.327895 0 0.732375 0C1.13685 0 1.46475 0.39896 1.46475 0.891103C1.46475 1.38325 1.13685 1.78221 0.732375 1.78221C0.327895 1.78221 0 1.38325 0 0.891103Z" fill="#FFFFFF" fill-rule="evenodd" />
      </g>
      <path d="M26.0728 3.12924L0 3.12924L1.3125 0L26.0728 0L26.0728 3.12924Z" fill="#FFFFFF" fill-rule="evenodd" transform="translate(11.738 1.638)" />
      <g transform="translate(13.834 2.576)">
        <path d="M0.268407 0C0.268407 0 0.376031 0.568517 0.376031 0.568517C0.399 0.701863 0.421969 0.838403 0.441657 0.974943C0.441657 0.974943 0.445594 0.974943 0.445594 0.974943C0.466594 0.838403 0.500719 0.699467 0.53025 0.570913C0.53025 0.570913 0.661501 0 0.661501 0L0.872814 0C0.872814 0 1.00406 0.558935 1.00406 0.558935C1.03556 0.705057 1.06313 0.841597 1.0861 0.977338C1.0861 0.977338 1.09069 0.977338 1.09069 0.977338C1.1071 0.840799 1.13138 0.704259 1.15631 0.558935C1.15631 0.558935 1.2705 0 1.2705 0L1.52578 0L1.20291 1.25202L0.962064 1.25202C0.962064 1.25202 0.839345 0.742585 0.839345 0.742585C0.807844 0.611635 0.781595 0.478288 0.761251 0.343346C0.761251 0.343346 0.756657 0.343346 0.756657 0.343346C0.737627 0.478288 0.711376 0.611635 0.678564 0.742585C0.678564 0.742585 0.547314 1.25202 0.547314 1.25202L0.3045 1.25202L0 0L0.268407 0L0.268407 0Z" fill="#415E72" />
        <path d="M0.267094 0C0.267094 0 0.374718 0.568517 0.374718 0.568517C0.397687 0.701863 0.420655 0.838403 0.440343 0.974943C0.440343 0.974943 0.441657 0.974943 0.441657 0.974943C0.462 0.838403 0.496125 0.699467 0.525657 0.570913C0.525657 0.570913 0.656907 0 0.656907 0L0.86822 0C0.86822 0 0.999471 0.558935 0.999471 0.558935C1.03097 0.705057 1.05853 0.841597 1.0815 0.977338C1.0815 0.977338 1.0861 0.977338 1.0861 0.977338C1.1025 0.840799 1.12678 0.704259 1.15172 0.558935C1.15172 0.558935 1.26591 0 1.26591 0L1.52185 0L1.19831 1.25202L0.95747 1.25202C0.95747 1.25202 0.834751 0.742585 0.834751 0.742585C0.803251 0.611635 0.777001 0.478288 0.756658 0.343346C0.756658 0.343346 0.756658 0.343346 0.756658 0.343346C0.737627 0.478288 0.711376 0.611635 0.678564 0.742585C0.678564 0.742585 0.547314 1.25202 0.547314 1.25202L0.304501 1.25202L0 0L0.267094 0L0.267094 0Z" fill="#415E72" transform="translate(1.671 0)" />
        <path d="M0.269719 0C0.269719 0 0.377344 0.568517 0.377344 0.568517C0.400313 0.701863 0.423281 0.838403 0.44297 0.974943C0.44297 0.974943 0.446907 0.974943 0.446907 0.974943C0.467907 0.838403 0.502032 0.699467 0.531563 0.570913C0.531563 0.570913 0.662814 0 0.662814 0L0.874782 0C0.874782 0 1.00603 0.558935 1.00603 0.558935C1.03753 0.705057 1.0651 0.841597 1.08806 0.977338C1.08806 0.977338 1.09266 0.977338 1.09266 0.977338C1.10906 0.840799 1.13335 0.704259 1.15828 0.558935C1.15828 0.558935 1.27247 0 1.27247 0L1.53103 0L1.20291 1.25202L0.962064 1.25202C0.962064 1.25202 0.839344 0.742585 0.839344 0.742585C0.807844 0.611635 0.781595 0.478288 0.761251 0.343346C0.761251 0.343346 0.756657 0.343346 0.756657 0.343346C0.737626 0.478288 0.711376 0.611635 0.678564 0.742585C0.678564 0.742585 0.547313 1.25202 0.547313 1.25202L0.3045 1.25202L0 0L0.269719 0L0.269719 0Z" fill="#415E72" transform="translate(3.338 0)" />
        <path d="M0.000222683 0.203612C-0.00437069 0.0974143 0.0625663 0.00638813 0.150504 0C0.153785 0 0.157722 0 0.161005 0C0.253536 0.00718617 0.323098 0.103802 0.317849 0.21559C0.312599 0.317795 0.245661 0.39924 0.161005 0.406427C0.0737238 0.408023 0.00153589 0.323385 0.000222683 0.217187C0.000222683 0.213194 0.000222683 0.208404 0.000222683 0.203612C0.000222683 0.203612 0.000222683 0.203612 0.000222683 0.203612Z" fill="#415E72" transform="translate(4.961 0.874)" />
      </g>
      <g transform="translate(34.684 2.112)">
        <rect width="1.769" height="0.399" fill="#FC836D" fill-rule="evenodd" transform="translate(0 0.89)" />
        <path d="M0.232312 2.17905L0 1.89719L0.664125 1.08992L0 0.281863L0.232312 0L1.12809 1.08992L0.232312 2.17905Z" fill="#FC836D" fill-rule="evenodd" transform="translate(1.033 0)" />
      </g>
      <path d="M26.6516 0.798479L26.6516 10.6549L0.65625 10.6549L0.65625 0.798479L26.6516 0.798479L26.6516 0.798479ZM27.3079 0L0 0L0 11.4534L27.3079 11.4534L27.3079 0L27.3079 0Z" fill="#6344DF" transform="translate(7.346 14.64)" />
      <g transform="translate(12.146 17.63)">
        <path d="M0.185719 5.87201L0 0L1.03819 0C1.03819 0 1.04541 2.61342 1.04541 2.61342C1.03819 3.31928 1.03163 3.99 1.01653 4.51221C1.01653 4.51221 1.03097 4.51221 1.03097 4.51221C1.19569 3.9373 1.37419 3.34483 1.596 2.63099C1.596 2.63099 2.46225 1.52298e-06 2.46225 1.52298e-06L3.59362 1.52298e-06C3.59362 1.52298e-06 3.57984 2.62221 3.57984 2.62221C3.57262 3.32806 3.55819 3.91095 3.53719 4.48666C3.53719 4.48666 3.55097 4.48666 3.55097 4.48666C3.71569 3.87662 3.89419 3.24023 4.08122 2.61342C4.08122 2.61342 4.91663 1.52298e-06 4.91663 1.52298e-06L5.99944 1.52298e-06L3.87319 5.87202L2.751 5.87202C2.751 5.87202 2.71491 3.45902 2.71491 3.45902C2.71491 2.77152 2.72869 2.18145 2.75756 1.51631C2.75756 1.51631 2.74378 1.51631 2.74378 1.51631C2.56463 2.14392 2.39991 2.77073 2.15644 3.49415C2.15644 3.49415 1.33284 5.87282 1.33284 5.87282L0.185719 5.87201L0.185719 5.87201Z" fill="#FC836D" />
        <path d="M0.185719 5.87201L0 0L1.03819 0C1.03819 0 1.04541 2.61342 1.04541 2.61342C1.03819 3.31928 1.03163 3.99 1.01653 4.51221C1.01653 4.51221 1.029 4.51221 1.029 4.51221C1.19372 3.9373 1.37222 3.34483 1.59403 2.63099C1.59403 2.63099 2.46028 1.52298e-06 2.46028 1.52298e-06L3.59166 1.52298e-06C3.59166 1.52298e-06 3.57788 2.62221 3.57788 2.62221C3.57065 3.32806 3.55622 3.91095 3.53522 4.48666C3.53522 4.48666 3.549 4.48666 3.549 4.48666C3.71372 3.87662 3.89222 3.24023 4.07925 2.61342C4.07925 2.61342 4.91663 1.52298e-06 4.91663 1.52298e-06L5.99747 1.52298e-06L3.87122 5.87202L2.74969 5.87202C2.74969 5.87202 2.71359 3.45902 2.71359 3.45902C2.71359 2.77152 2.72737 2.18145 2.75625 1.51631C2.75625 1.51631 2.74247 1.51631 2.74247 1.51631C2.56331 2.14392 2.39859 2.77073 2.15512 3.49415C2.15512 3.49415 1.33153 5.87282 1.33153 5.87282L0.185719 5.87201L0.185719 5.87201Z" fill="#FC836D" transform="translate(6.185 0)" />
        <path d="M0.185719 5.87201L0 0L1.03819 0C1.03819 0 1.04541 2.61342 1.04541 2.61342C1.03819 3.31928 1.03163 3.99 1.01653 4.51221C1.01653 4.51221 1.03097 4.51221 1.03097 4.51221C1.19569 3.9373 1.37419 3.34483 1.596 2.63099C1.596 2.63099 2.46225 1.52298e-06 2.46225 1.52298e-06L3.59363 1.52298e-06C3.59363 1.52298e-06 3.57984 2.62221 3.57984 2.62221C3.57263 3.32806 3.55819 3.91095 3.53719 4.48666C3.53719 4.48666 3.55097 4.48666 3.55097 4.48666C3.71569 3.87662 3.89419 3.24023 4.08122 2.61342C4.08122 2.61342 4.9186 1.52298e-06 4.9186 1.52298e-06L6.00009 1.52298e-06L3.87384 5.87202L2.74969 5.87202C2.74969 5.87202 2.71359 3.45902 2.71359 3.45902C2.71359 2.77152 2.72737 2.18145 2.75625 1.51631C2.75625 1.51631 2.74247 1.51631 2.74247 1.51631C2.56331 2.14392 2.39859 2.77073 2.15512 3.49415C2.15512 3.49415 1.33153 5.87282 1.33153 5.87282L0.185719 5.87201L0.185719 5.87201Z" fill="#FC836D" transform="translate(12.37 0)" />
      </g>
      <g transform="translate(16 28)">
        <path d="M0 0.0635066L2.45976 0L2.74249 6.72684L0.242241 6.94629L0 0.0635066Z" fill="#415E72" fill-rule="evenodd" transform="matrix(0.743 -0.669 0.669 0.743 4 5)" />
        <path d="M1.60035 8L0 0L9 1.42239L1.60035 8Z" fill="#415E72" fill-rule="evenodd" />
      </g>
    </g>
    <g transform="translate(45 3)">
      <path d="M8.0127 12.7661L8.0127 13.916L2.36572 13.916L2.36572 12.7661L8.0127 12.7661ZM2.65137 3.25195L2.65137 13.916L1.23779 13.916L1.23779 3.25195L2.65137 3.25195ZM7.26563 7.83691L7.26563 8.98682L2.36572 8.98682L2.36572 7.83691L7.26563 7.83691ZM7.93945 3.25195L7.93945 4.40918L2.36572 4.40918L2.36572 3.25195L7.93945 3.25195ZM11.7773 12.6929L13.9453 5.99121L15.3296 5.99121L12.4805 13.916L11.5723 13.916L11.7773 12.6929ZM9.96826 5.99121L12.2021 12.7295L12.356 13.916L11.4478 13.916L8.57666 5.99121L9.96826 5.99121ZM21.6724 5.99121L22.9028 5.99121L22.9028 13.7476Q22.9028 14.7949 22.478 15.5347Q22.0532 16.2744 21.2952 16.6589Q20.5371 17.0435 19.5483 17.0435Q19.1382 17.0435 18.5852 16.9153Q18.0322 16.7871 17.5012 16.4832Q16.9702 16.1792 16.6113 15.6665L17.3218 14.8608Q17.8198 15.4614 18.3655 15.6958Q18.9111 15.9302 19.4458 15.9302Q20.0903 15.9302 20.5591 15.6885Q21.0278 15.4468 21.2878 14.9744Q21.5479 14.502 21.5479 13.8135L21.5479 7.73438L21.6724 5.99121ZM16.2158 10.0415L16.2158 9.8877Q16.2158 8.97949 16.4319 8.23608Q16.6479 7.49268 17.0544 6.95801Q17.4609 6.42334 18.0396 6.13403Q18.6182 5.84473 19.3433 5.84473Q20.0903 5.84473 20.6506 6.10474Q21.2109 6.36475 21.6028 6.85913Q21.9946 7.35352 22.2217 8.04932Q22.4487 8.74512 22.5366 9.62402L22.5366 10.2979Q22.4561 11.1694 22.2253 11.8652Q21.9946 12.561 21.6028 13.0518Q21.2109 13.5425 20.647 13.8025Q20.083 14.0625 19.3286 14.0625Q18.6182 14.0625 18.0432 13.7622Q17.4683 13.4619 17.0581 12.9199Q16.6479 12.3779 16.4319 11.6418Q16.2158 10.9058 16.2158 10.0415ZM17.5708 9.8877L17.5708 10.0415Q17.5708 10.6348 17.6917 11.1548Q17.8125 11.6748 18.0652 12.0703Q18.3179 12.4658 18.7134 12.6892Q19.1089 12.9126 19.6582 12.9126Q20.332 12.9126 20.7715 12.627Q21.2109 12.3413 21.4709 11.8726Q21.731 11.4038 21.8774 10.8545L21.8774 9.08936Q21.7969 8.68652 21.6321 8.30933Q21.4673 7.93213 21.2073 7.6355Q20.9473 7.33887 20.5664 7.16309Q20.1855 6.9873 19.6729 6.9873Q19.1162 6.9873 18.717 7.21802Q18.3179 7.44873 18.0652 7.8479Q17.8125 8.24707 17.6917 8.77075Q17.5708 9.29443 17.5708 9.8877ZM28.2495 14.0625Q27.4219 14.0625 26.7517 13.7805Q26.0815 13.4985 25.6018 12.9858Q25.1221 12.4731 24.8657 11.77Q24.6094 11.0669 24.6094 10.2319L24.6094 9.92432Q24.6094 8.95752 24.895 8.19946Q25.1807 7.44141 25.6714 6.91406Q26.1621 6.38672 26.7847 6.11572Q27.4072 5.84473 28.0737 5.84473Q28.9233 5.84473 29.5422 6.1377Q30.1611 6.43067 30.5566 6.95435Q30.9521 7.47803 31.1426 8.18481Q31.333 8.8916 31.333 9.72656L31.333 10.3345L25.415 10.3345L25.415 9.22852L29.978 9.22852L29.978 9.12598Q29.9487 8.59863 29.762 8.10059Q29.5752 7.60254 29.1724 7.28027Q28.7695 6.95801 28.0737 6.95801Q27.6123 6.95801 27.2241 7.1521Q26.8359 7.34619 26.5576 7.72705Q26.2793 8.10791 26.1255 8.65723Q25.9717 9.20654 25.9717 9.92432L25.9717 10.2319Q25.9717 10.7959 26.1292 11.2903Q26.2866 11.7847 26.5906 12.1582Q26.8945 12.5317 27.3303 12.7441Q27.7661 12.9565 28.3228 12.9565Q29.0405 12.9565 29.5386 12.6636Q30.0366 12.3706 30.4102 11.8799L31.2305 12.5317Q30.9741 12.9199 30.5786 13.2715Q30.1831 13.623 29.6082 13.8428Q29.0332 14.0625 28.2495 14.0625ZM34.27 7.68311L34.27 13.916L32.915 13.916L32.915 5.99121L34.1968 5.99121L34.27 7.68311ZM33.9478 9.65332L33.3838 9.63135Q33.3911 8.81836 33.6255 8.12622Q33.8599 7.43408 34.2847 6.92139Q34.7095 6.40869 35.2991 6.12671Q35.8887 5.84473 36.6064 5.84473Q37.1924 5.84473 37.6611 6.0022Q38.1299 6.15967 38.4631 6.50391Q38.7964 6.84815 38.9722 7.3938Q39.1479 7.93945 39.1479 8.72314L39.1479 13.916L37.7856 13.916L37.7856 8.7085Q37.7856 8.08594 37.6025 7.70874Q37.4194 7.33154 37.0679 7.15942Q36.7163 6.98731 36.2036 6.9873Q35.6982 6.9873 35.2844 7.19971Q34.8706 7.41211 34.574 7.78564Q34.2773 8.15918 34.1125 8.63892Q33.9478 9.11865 33.9478 9.65332ZM42.6709 5.99121L42.6709 13.916L41.3086 13.916L41.3086 5.99121L42.6709 5.99121ZM41.2061 3.88916Q41.2061 3.55957 41.4075 3.33252Q41.6089 3.10547 42.0044 3.10547Q42.3926 3.10547 42.6013 3.33252Q42.8101 3.55957 42.8101 3.88916Q42.8101 4.2041 42.6013 4.42749Q42.3926 4.65088 42.0044 4.65088Q41.6089 4.65088 41.4075 4.42749Q41.2061 4.2041 41.2061 3.88916ZM47.0728 13.0957L49.2773 5.99121L50.7275 5.99121L47.5488 15.1392Q47.439 15.4321 47.2595 15.7727Q47.0801 16.1133 46.8018 16.4209Q46.5234 16.7285 46.1316 16.9226Q45.7397 17.1167 45.1978 17.1167Q45.0366 17.1167 44.7876 17.0728Q44.5386 17.0288 44.436 16.9995L44.4287 15.9009Q44.4873 15.9082 44.6155 15.9192Q44.7437 15.9302 44.7949 15.9302Q45.2563 15.9302 45.5786 15.8093Q45.9009 15.6885 46.1243 15.4065Q46.3477 15.1245 46.5088 14.6338L47.0728 13.0957ZM45.4541 5.99121L47.5122 12.1436L47.8638 13.5718L46.8896 14.0698L43.9746 5.99121L45.4541 5.99121ZM57.2827 3.25195L57.2827 13.916L55.8691 13.916L55.8691 3.25195L57.2827 3.25195ZM61.7505 8.04932L61.7505 9.20654L56.9751 9.20654L56.9751 8.04932L61.7505 8.04932ZM62.4756 3.25195L62.4756 4.40918L56.9751 4.40918L56.9751 3.25195L62.4756 3.25195ZM65.4272 5.99121L65.4272 13.916L64.0649 13.916L64.0649 5.99121L65.4272 5.99121ZM63.9624 3.88916Q63.9624 3.55957 64.1638 3.33252Q64.3652 3.10547 64.7607 3.10547Q65.1489 3.10547 65.3577 3.33252Q65.5664 3.55957 65.5664 3.88916Q65.5664 4.2041 65.3577 4.42749Q65.1489 4.65088 64.7607 4.65088Q64.3652 4.65088 64.1638 4.42749Q63.9624 4.2041 63.9624 3.88916ZM69.0747 2.66602L69.0747 13.916L67.7124 13.916L67.7124 2.66602L69.0747 2.66602ZM70.8911 10.0415L70.8911 9.87305Q70.8911 9.01611 71.1401 8.28003Q71.3892 7.54395 71.8579 6.99829Q72.3267 6.45264 72.9932 6.14868Q73.6597 5.84473 74.4873 5.84473Q75.3223 5.84473 75.9924 6.14868Q76.6626 6.45264 77.135 6.99829Q77.6074 7.54395 77.8564 8.28003Q78.1055 9.01611 78.1055 9.87305L78.1055 10.0415Q78.1055 10.8984 77.8564 11.6309Q77.6074 12.3633 77.135 12.9089Q76.6626 13.4546 75.9998 13.7585Q75.3369 14.0625 74.502 14.0625Q73.667 14.0625 73.0005 13.7585Q72.334 13.4546 71.8616 12.9089Q71.3892 12.3633 71.1401 11.6309Q70.8911 10.8984 70.8911 10.0415ZM72.2461 9.87305L72.2461 10.0415Q72.2461 10.6348 72.3853 11.1584Q72.5244 11.6821 72.8064 12.085Q73.0884 12.4878 73.5132 12.7185Q73.938 12.9492 74.502 12.9492Q75.0586 12.9492 75.4797 12.7185Q75.9009 12.4878 76.1792 12.085Q76.4575 11.6821 76.6003 11.1584Q76.7432 10.6348 76.7432 10.0415L76.7432 9.87305Q76.7432 9.28711 76.6003 8.76343Q76.4575 8.23975 76.1755 7.83325Q75.8936 7.42676 75.4724 7.19238Q75.0513 6.95801 74.4873 6.95801Q73.9307 6.95801 73.5095 7.19238Q73.0884 7.42676 72.8064 7.83325Q72.5244 8.23975 72.3853 8.76343Q72.2461 9.28711 72.2461 9.87305ZM81.1597 7.68311L81.1597 13.916L79.8047 13.916L79.8047 5.99121L81.0864 5.99121L81.1597 7.68311ZM80.8374 9.65332L80.2734 9.63135Q80.2808 8.81836 80.5151 8.12622Q80.7495 7.43408 81.1743 6.92139Q81.5991 6.40869 82.1887 6.12671Q82.7783 5.84473 83.4961 5.84473Q84.082 5.84473 84.5508 6.0022Q85.0195 6.15967 85.3528 6.50391Q85.686 6.84815 85.8618 7.3938Q86.0376 7.93945 86.0376 8.72314L86.0376 13.916L84.6753 13.916L84.6753 8.7085Q84.6753 8.08594 84.4922 7.70874Q84.3091 7.33154 83.9575 7.15942Q83.606 6.98731 83.0933 6.9873Q82.5879 6.9873 82.1741 7.19971Q81.7603 7.41211 81.4636 7.78564Q81.167 8.15918 81.0022 8.63892Q80.8374 9.11865 80.8374 9.65332ZM87.7295 10.0415L87.7295 9.87305Q87.7295 9.01611 87.9785 8.28003Q88.2275 7.54395 88.6963 6.99829Q89.165 6.45264 89.8315 6.14868Q90.498 5.84473 91.3257 5.84473Q92.1606 5.84473 92.8308 6.14868Q93.501 6.45264 93.9734 6.99829Q94.4458 7.54395 94.6948 8.28003Q94.9438 9.01611 94.9438 9.87305L94.9438 10.0415Q94.9438 10.8984 94.6948 11.6309Q94.4458 12.3633 93.9734 12.9089Q93.501 13.4546 92.8381 13.7585Q92.1753 14.0625 91.3403 14.0625Q90.5054 14.0625 89.8389 13.7585Q89.1724 13.4546 88.7 12.9089Q88.2275 12.3633 87.9785 11.6309Q87.7295 10.8984 87.7295 10.0415ZM89.0845 9.87305L89.0845 10.0415Q89.0845 10.6348 89.2236 11.1584Q89.3628 11.6821 89.6448 12.085Q89.9268 12.4878 90.3516 12.7185Q90.7764 12.9492 91.3403 12.9492Q91.897 12.9492 92.3181 12.7185Q92.7393 12.4878 93.0176 12.085Q93.2959 11.6821 93.4387 11.1584Q93.5815 10.6348 93.5815 10.0415L93.5815 9.87305Q93.5815 9.28711 93.4387 8.76343Q93.2959 8.23975 93.0139 7.83325Q92.7319 7.42676 92.3108 7.19238Q91.8896 6.95801 91.3257 6.95801Q90.769 6.95801 90.3479 7.19238Q89.9268 7.42676 89.6448 7.83325Q89.3628 8.23975 89.2236 8.76343Q89.0845 9.28711 89.0845 9.87305ZM98.9429 12.6929L101.111 5.99121L102.495 5.99121L99.646 13.916L98.7378 13.916L98.9429 12.6929ZM97.1338 5.99121L99.3677 12.7295L99.5215 13.916L98.6133 13.916L95.7422 5.99121L97.1338 5.99121Z" fill="#7351F5" clip-path="url(#clip_path_1)" />
    </g>
    <g transform="translate(81 23)">
      <path d="M1.45752 8.99414L6.51855 11.0449L6.51855 12.4805L0.527344 9.70459L0.527344 8.8623L1.45752 8.99414ZM6.51855 7.30957L1.46484 9.38965L0.527344 9.49219L0.527344 8.64258L6.51855 5.87402L6.51855 7.30957ZM13.374 3.25195L8.92822 14.8315L7.76367 14.8315L12.2168 3.25195L13.374 3.25195ZM20.0098 9.28711L14.8022 7.2583L14.8022 5.85938L21.0571 8.62793L21.0571 9.48486L20.0098 9.28711ZM14.8022 11.0742L20.0244 9.00146L21.0571 8.84766L21.0571 9.69727L14.8022 12.4731L14.8022 11.0742Z" fill="#FC836D" clip-path="url(#clip_path_2)" />
    </g>
  </g>
</svg>