<?xml version="1.0" encoding="utf-8"?>
<svg width="5.875" height="10" viewBox="0 0 5.875 10" fill="none" xmlns="http://www.w3.org/2000/svg">
  <path d="M5.71539 4.6098L1.26527 0.159755C1.16235 0.0567474 1.02495 0 0.878448 0C0.731949 0 0.594543 0.0567474 0.491623 0.159755L0.163895 0.487394C-0.0493469 0.700889 -0.0493469 1.04788 0.163895 1.26105L3.90079 4.99793L0.15976 8.73895C0.0568237 8.84196 0 8.97928 0 9.1257C0 9.27228 0.0568237 9.4096 0.15976 9.51269L0.487473 9.84025C0.590485 9.94325 0.727798 10 0.874298 10C1.0208 10 1.1582 9.94325 1.26112 9.84025L5.71539 5.38614C5.81857 5.2828 5.87524 5.14484 5.87491 4.99817C5.87524 4.85094 5.81857 4.71305 5.71539 4.6098L5.71539 4.6098Z" fill="#3B434E" fill-rule="evenodd" transform="translate(-0 -0)" />
</svg>