<?xml version="1.0" encoding="utf-8"?>
<svg width="20" height="13" viewBox="0 0 20 13" fill="none" xmlns="http://www.w3.org/2000/svg">
  <g>
    <path d="M18.5 0C19.3285 0 20 0.67146 20 1.5L20 1.5C20 2.32854 19.3285 3 18.5 3L1.5 3C0.67146 3 0 2.32854 0 1.5L0 1.5C0 0.67146 0.67146 0 1.5 0L18.5 0Z" fill="#7653FC" />
    <path d="M12.5 0C13.3285 0 14 0.67146 14 1.5L14 1.5C14 2.32854 13.3285 3 12.5 3L1.5 3C0.67146 3 0 2.32854 0 1.5L0 1.5C0 0.67146 0.67146 0 1.5 0L12.5 0Z" fill="#7653FC" transform="translate(0 5)" />
    <path d="M6.5 0C7.32854 0 8 0.67146 8 1.5L8 1.5C8 2.32854 7.32854 3 6.5 3L1.5 3C0.67146 3 0 2.32854 0 1.5L0 1.5C0 0.67146 0.67146 0 1.5 0L6.5 0Z" fill="#7653FC" transform="translate(0 10)" />
  </g>
</svg>